<svg width="313" height="32" viewBox="0 0 313 32" fill="none" xmlns="http://www.w3.org/2000/svg">
<path fill-rule="evenodd" clip-rule="evenodd" d="M10.2506 0L0 10.2506V31.8909H20.5013V26.1073L24.7073 21.9013L34.5818 31.7758L38.6086 27.749L28.7341 17.8745L38.0254 8.58311L33.9986 4.55628L20.5013 18.0536V10.2506L10.2506 0ZM15.9451 23.918H5.6945V31.8908H15.9451V23.918Z" fill="white"/>
<path d="M57.5286 27.9453V3.87806H61.8885V14.9363H62.1823L71.5718 3.87806H76.8953L67.588 14.6778L76.9775 27.9453H71.7363L64.5561 17.6274L61.8885 20.7768V27.9453H57.5286ZM82.0047 17.3689V27.9453H77.7507V3.87806H81.9107V12.962H82.1222C82.5453 11.9436 83.1995 11.1405 84.0848 10.553C84.9779 9.95755 86.1139 9.65984 87.4927 9.65984C88.7462 9.65984 89.8391 9.92229 90.7714 10.4472C91.7037 10.9721 92.4245 11.7399 92.9337 12.7505C93.4508 13.7611 93.7093 14.9951 93.7093 16.4523V27.9453H89.4552V17.1103C89.4552 15.896 89.1419 14.952 88.5151 14.2782C87.8962 13.5966 87.0266 13.2558 85.9063 13.2558C85.1542 13.2558 84.4804 13.4203 83.885 13.7494C83.2974 14.0706 82.8352 14.5368 82.4983 15.1478C82.1693 15.7589 82.0047 16.4993 82.0047 17.3689ZM101.254 28.3096C100.11 28.3096 99.0803 28.1059 98.1636 27.6985C97.2548 27.2833 96.5341 26.6722 96.0013 25.8653C95.4764 25.0583 95.214 24.0634 95.214 22.8804C95.214 21.8619 95.402 21.0197 95.7781 20.3538C96.1541 19.6879 96.6673 19.1551 97.3175 18.7556C97.9678 18.356 98.7003 18.0544 99.5151 17.8507C100.338 17.6392 101.188 17.4864 102.065 17.3924C103.123 17.2827 103.981 17.1848 104.639 17.0986C105.297 17.0046 105.775 16.8636 106.072 16.6755C106.378 16.4797 106.531 16.1781 106.531 15.7707V15.7002C106.531 14.8149 106.268 14.1294 105.743 13.6436C105.219 13.1579 104.462 12.915 103.475 12.915C102.433 12.915 101.607 13.1422 100.996 13.5966C100.393 14.051 99.9851 14.5877 99.7736 15.2066L95.8016 14.6425C96.1149 13.5457 96.632 12.6291 97.3528 11.8926C98.0735 11.1484 98.9549 10.5921 99.9969 10.2239C101.039 9.84787 102.191 9.65984 103.452 9.65984C104.321 9.65984 105.187 9.76169 106.049 9.96538C106.911 10.1691 107.698 10.506 108.411 10.976C109.124 11.4382 109.696 12.0689 110.127 12.868C110.565 13.6671 110.785 14.666 110.785 15.8647V27.9453H106.695V25.4657H106.554C106.296 25.9671 105.931 26.4372 105.461 26.8759C104.999 27.3068 104.415 27.6554 103.71 27.9218C103.013 28.1803 102.194 28.3096 101.254 28.3096ZM102.359 25.1837C103.213 25.1837 103.953 25.0152 104.58 24.6784C105.207 24.3337 105.689 23.8793 106.025 23.3152C106.37 22.7511 106.543 22.1361 106.543 21.4702V19.3431C106.409 19.4528 106.182 19.5547 105.861 19.6487C105.548 19.7427 105.195 19.825 104.803 19.8955C104.412 19.966 104.024 20.0287 103.64 20.0835C103.256 20.1383 102.923 20.1853 102.641 20.2245C102.006 20.3107 101.438 20.4517 100.937 20.6476C100.436 20.8434 100.04 21.1176 99.7501 21.4702C99.4602 21.8149 99.3153 22.2615 99.3153 22.8099C99.3153 23.5933 99.6012 24.1848 100.173 24.5844C100.745 24.9839 101.474 25.1837 102.359 25.1837ZM117.331 17.3689V27.9453H113.077V9.89487H117.143V12.962H117.354C117.77 11.9514 118.432 11.1484 119.34 10.553C120.257 9.95755 121.389 9.65984 122.737 9.65984C123.982 9.65984 125.067 9.92621 125.992 10.4589C126.924 10.9917 127.645 11.7634 128.154 12.774C128.671 13.7846 128.926 15.0107 128.918 16.4523V27.9453H124.664V17.1103C124.664 15.9039 124.351 14.9598 123.724 14.2782C123.105 13.5966 122.247 13.2558 121.15 13.2558C120.406 13.2558 119.744 13.4203 119.164 13.7494C118.592 14.0706 118.142 14.5368 117.813 15.1478C117.492 15.7589 117.331 16.4993 117.331 17.3689ZM158.269 11.9984H153.873C153.748 11.2776 153.517 10.6391 153.18 10.0829C152.843 9.51882 152.424 9.04092 151.923 8.6492C151.421 8.25748 150.849 7.96369 150.207 7.76784C149.572 7.56414 148.887 7.46229 148.15 7.46229C146.842 7.46229 145.683 7.79134 144.672 8.44943C143.661 9.09968 142.87 10.0555 142.298 11.3168C141.726 12.5703 141.44 14.1019 141.44 15.9117C141.44 17.7528 141.726 19.304 142.298 20.5653C142.878 21.8188 143.669 22.7668 144.672 23.4092C145.683 24.0438 146.838 24.3611 148.139 24.3611C148.859 24.3611 149.533 24.2671 150.16 24.079C150.795 23.8832 151.363 23.5972 151.864 23.2212C152.373 22.8451 152.8 22.3829 153.145 21.8345C153.497 21.2861 153.74 20.6593 153.873 19.9542L158.269 19.9777C158.104 21.1216 157.748 22.1949 157.199 23.1977C156.659 24.2005 155.95 25.0858 155.072 25.8535C154.195 26.6135 153.168 27.2089 151.993 27.6398C150.818 28.0628 149.514 28.2744 148.08 28.2744C145.965 28.2744 144.077 27.7847 142.416 26.8054C140.755 25.8261 139.446 24.412 138.491 22.5631C137.535 20.7142 137.057 18.497 137.057 15.9117C137.057 13.3185 137.539 11.1014 138.502 9.26029C139.466 7.41137 140.778 5.99726 142.439 5.01796C144.1 4.03866 145.98 3.54901 148.08 3.54901C149.42 3.54901 150.665 3.73704 151.817 4.11309C152.969 4.48914 153.995 5.04147 154.896 5.77007C155.797 6.49083 156.537 7.37612 157.117 8.42592C157.704 9.4679 158.088 10.6587 158.269 11.9984ZM167.961 28.2979C166.198 28.2979 164.671 27.9101 163.378 27.1345C162.085 26.3588 161.083 25.2738 160.37 23.8793C159.665 22.4847 159.312 20.8552 159.312 18.9906C159.312 17.126 159.665 15.4925 160.37 14.0902C161.083 12.6878 162.085 11.5989 163.378 10.8232C164.671 10.0476 166.198 9.65984 167.961 9.65984C169.724 9.65984 171.252 10.0476 172.544 10.8232C173.837 11.5989 174.836 12.6878 175.541 14.0902C176.254 15.4925 176.61 17.126 176.61 18.9906C176.61 20.8552 176.254 22.4847 175.541 23.8793C174.836 25.2738 173.837 26.3588 172.544 27.1345C171.252 27.9101 169.724 28.2979 167.961 28.2979ZM167.985 24.8899C168.94 24.8899 169.74 24.6274 170.382 24.1025C171.024 23.5698 171.502 22.8569 171.816 21.9638C172.137 21.0706 172.297 20.0757 172.297 18.9789C172.297 17.8742 172.137 16.8753 171.816 15.9822C171.502 15.0812 171.024 14.3644 170.382 13.8317C169.74 13.2989 168.94 13.0325 167.985 13.0325C167.005 13.0325 166.191 13.2989 165.54 13.8317C164.898 14.3644 164.416 15.0812 164.095 15.9822C163.781 16.8753 163.625 17.8742 163.625 18.9789C163.625 20.0757 163.781 21.0706 164.095 21.9638C164.416 22.8569 164.898 23.5698 165.54 24.1025C166.191 24.6274 167.005 24.8899 167.985 24.8899ZM182.489 17.3689V27.9453H178.235V9.89487H182.301V12.962H182.513C182.928 11.9514 183.59 11.1484 184.499 10.553C185.416 9.95755 186.548 9.65984 187.895 9.65984C189.141 9.65984 190.226 9.92621 191.15 10.4589C192.083 10.9917 192.803 11.7634 193.313 12.774C193.83 13.7846 194.084 15.0107 194.077 16.4523V27.9453H189.822V17.1103C189.822 15.9039 189.509 14.9598 188.882 14.2782C188.263 13.5966 187.406 13.2558 186.309 13.2558C185.564 13.2558 184.902 13.4203 184.323 13.7494C183.751 14.0706 183.3 14.5368 182.971 15.1478C182.65 15.7589 182.489 16.4993 182.489 17.3689ZM210.682 14.666L206.804 15.0891C206.694 14.6974 206.502 14.3291 206.228 13.9844C205.962 13.6397 205.601 13.3616 205.147 13.1501C204.693 12.9385 204.136 12.8328 203.478 12.8328C202.593 12.8328 201.849 13.0247 201.246 13.4086C200.65 13.7925 200.356 14.29 200.364 14.901C200.356 15.426 200.548 15.8529 200.94 16.182C201.34 16.511 201.998 16.7813 202.914 16.9928L205.993 17.6509C207.701 18.0191 208.97 18.6028 209.801 19.4019C210.639 20.201 211.062 21.2469 211.07 22.5396C211.062 23.6756 210.729 24.6784 210.071 25.548C209.421 26.4098 208.516 27.0835 207.356 27.5693C206.197 28.055 204.865 28.2979 203.361 28.2979C201.151 28.2979 199.373 27.8356 198.026 26.9112C196.678 25.9789 195.875 24.6823 195.617 23.0214L199.765 22.6218C199.953 23.4366 200.352 24.0516 200.963 24.4668C201.575 24.8821 202.37 25.0897 203.349 25.0897C204.36 25.0897 205.171 24.8821 205.782 24.4668C206.401 24.0516 206.71 23.5385 206.71 22.9274C206.71 22.4103 206.51 21.9833 206.111 21.6465C205.719 21.3096 205.108 21.051 204.277 20.8709L201.199 20.2245C199.467 19.8641 198.186 19.257 197.356 18.403C196.525 17.5412 196.114 16.4523 196.122 15.1361C196.114 14.0236 196.416 13.06 197.027 12.2452C197.646 11.4226 198.503 10.788 199.6 10.3414C200.705 9.88704 201.978 9.65984 203.42 9.65984C205.535 9.65984 207.2 10.1103 208.414 11.0113C209.636 11.9122 210.392 13.1305 210.682 14.666ZM221.606 9.89487V13.1853H211.229V9.89487H221.606ZM213.791 5.57029H218.045V22.5161C218.045 23.088 218.131 23.5267 218.303 23.8323C218.484 24.13 218.719 24.3337 219.009 24.4433C219.298 24.553 219.62 24.6079 219.972 24.6079C220.239 24.6079 220.481 24.5883 220.701 24.5491C220.928 24.5099 221.1 24.4747 221.218 24.4433L221.935 27.769C221.707 27.8474 221.382 27.9336 220.959 28.0276C220.544 28.1216 220.035 28.1764 219.432 28.1921C218.366 28.2234 217.406 28.0628 216.552 27.7103C215.698 27.3499 215.021 26.7937 214.519 26.0416C214.026 25.2895 213.783 24.3493 213.791 23.2212V5.57029ZM234.683 20.3538V9.89487H238.937V27.9453H234.812V24.7371H234.624C234.217 25.7478 233.547 26.5743 232.614 27.2167C231.69 27.8591 230.55 28.1803 229.195 28.1803C228.012 28.1803 226.966 27.9179 226.057 27.393C225.156 26.8602 224.451 26.0886 223.942 25.0779C223.432 24.0595 223.178 22.8295 223.178 21.3879V9.89487H227.432V20.7298C227.432 21.8737 227.745 22.7824 228.372 23.4562C228.999 24.13 229.821 24.4668 230.84 24.4668C231.467 24.4668 232.074 24.3141 232.661 24.0085C233.249 23.703 233.731 23.2486 234.107 22.6453C234.491 22.0343 234.683 21.2704 234.683 20.3538ZM249.199 28.2979C247.397 28.2979 245.85 27.9022 244.557 27.1109C243.273 26.3197 242.281 25.2268 241.584 23.8323C240.895 22.4299 240.55 20.816 240.55 18.9906C240.55 17.1574 240.903 15.5396 241.608 14.1372C242.313 12.727 243.308 11.6302 244.593 10.8468C245.885 10.0555 247.413 9.65984 249.176 9.65984C250.641 9.65984 251.937 9.93013 253.066 10.4707C254.202 11.0034 255.106 11.7595 255.78 12.7388C256.454 13.7102 256.838 14.8462 256.932 16.1467H252.866C252.701 15.2771 252.31 14.5524 251.691 13.9727C251.08 13.3851 250.261 13.0913 249.235 13.0913C248.365 13.0913 247.601 13.3263 246.943 13.7964C246.285 14.2586 245.772 14.9246 245.404 15.7942C245.043 16.6638 244.863 17.7058 244.863 18.9201C244.863 20.1501 245.043 21.2077 245.404 22.093C245.764 22.9705 246.269 23.6481 246.919 24.126C247.578 24.5961 248.349 24.8311 249.235 24.8311C249.861 24.8311 250.421 24.7136 250.915 24.4786C251.416 24.2357 251.836 23.8871 252.172 23.4327C252.509 22.9783 252.74 22.426 252.866 21.7757H256.932C256.83 23.0527 256.454 24.1848 255.804 25.1719C255.153 26.1512 254.268 26.919 253.148 27.4752C252.027 28.0237 250.711 28.2979 249.199 28.2979ZM267.453 9.89487V13.1853H257.076V9.89487H267.453ZM259.638 5.57029H263.892V22.5161C263.892 23.088 263.978 23.5267 264.151 23.8323C264.331 24.13 264.566 24.3337 264.856 24.4433C265.146 24.553 265.467 24.6079 265.819 24.6079C266.086 24.6079 266.329 24.5883 266.548 24.5491C266.775 24.5099 266.948 24.4747 267.065 24.4433L267.782 27.769C267.555 27.8474 267.23 27.9336 266.807 28.0276C266.391 28.1216 265.882 28.1764 265.279 28.1921C264.213 28.2234 263.254 28.0628 262.4 27.7103C261.546 27.3499 260.868 26.7937 260.367 26.0416C259.873 25.2895 259.63 24.3493 259.638 23.2212V5.57029ZM269.025 27.9453V9.89487H273.279V27.9453H269.025ZM271.164 7.33303C270.49 7.33303 269.91 7.10975 269.425 6.66319C268.939 6.20879 268.696 5.6643 268.696 5.02971C268.696 4.38729 268.939 3.8428 269.425 3.39624C269.91 2.94185 270.49 2.71465 271.164 2.71465C271.846 2.71465 272.425 2.94185 272.903 3.39624C273.389 3.8428 273.632 4.38729 273.632 5.02971C273.632 5.6643 273.389 6.20879 272.903 6.66319C272.425 7.10975 271.846 7.33303 271.164 7.33303ZM283.542 28.2979C281.779 28.2979 280.251 27.9101 278.959 27.1345C277.666 26.3588 276.663 25.2738 275.95 23.8793C275.245 22.4847 274.893 20.8552 274.893 18.9906C274.893 17.126 275.245 15.4925 275.95 14.0902C276.663 12.6878 277.666 11.5989 278.959 10.8232C280.251 10.0476 281.779 9.65984 283.542 9.65984C285.304 9.65984 286.832 10.0476 288.125 10.8232C289.418 11.5989 290.416 12.6878 291.122 14.0902C291.834 15.4925 292.191 17.126 292.191 18.9906C292.191 20.8552 291.834 22.4847 291.122 23.8793C290.416 25.2738 289.418 26.3588 288.125 27.1345C286.832 27.9101 285.304 28.2979 283.542 28.2979ZM283.565 24.8899C284.521 24.8899 285.32 24.6274 285.963 24.1025C286.605 23.5698 287.083 22.8569 287.396 21.9638C287.717 21.0706 287.878 20.0757 287.878 18.9789C287.878 17.8742 287.717 16.8753 287.396 15.9822C287.083 15.0812 286.605 14.3644 285.963 13.8317C285.32 13.2989 284.521 13.0325 283.565 13.0325C282.586 13.0325 281.771 13.2989 281.121 13.8317C280.479 14.3644 279.997 15.0812 279.675 15.9822C279.362 16.8753 279.205 17.8742 279.205 18.9789C279.205 20.0757 279.362 21.0706 279.675 21.9638C279.997 22.8569 280.479 23.5698 281.121 24.1025C281.771 24.6274 282.586 24.8899 283.565 24.8899ZM298.07 17.3689V27.9453H293.816V9.89487H297.882V12.962H298.094C298.509 11.9514 299.171 11.1484 300.08 10.553C300.996 9.95755 302.128 9.65984 303.476 9.65984C304.722 9.65984 305.807 9.92621 306.731 10.4589C307.663 10.9917 308.384 11.7634 308.893 12.774C309.41 13.7846 309.665 15.0107 309.657 16.4523V27.9453H305.403V17.1103C305.403 15.9039 305.09 14.9598 304.463 14.2782C303.844 13.5966 302.986 13.2558 301.889 13.2558C301.145 13.2558 300.483 13.4203 299.903 13.7494C299.331 14.0706 298.881 14.5368 298.552 15.1478C298.231 15.7589 298.07 16.4993 298.07 17.3689Z" fill="white"/>
</svg>
