<svg width="223" height="25" viewBox="0 0 223 25" fill="none" xmlns="http://www.w3.org/2000/svg">
<path d="M14.8682 8.3703V14.0285L24.6572 4.23944L27.5771 7.16034L20.8389 13.8986L28 21.0598L25.0801 23.9807L17.918 16.8185L14.8682 19.8693V24.0646H11.5645V18.2824H4.12988V24.0646H0V8.3703L7.43457 0.93573L14.8682 8.3703Z" fill="#084527"/>
<path d="M41.517 21.0002V3.54564H45.2074V11.2417H45.4375L51.7188 3.54564H56.142L49.6648 11.361L56.2188 21.0002H51.804L47.0227 13.824L45.2074 16.04V21.0002H41.517ZM59.7064 13.432V21.0002H56.0757V3.54564H59.6041V10.2189H59.7576C60.053 9.44621 60.5303 8.84109 61.1894 8.40359C61.8485 7.96041 62.6752 7.73882 63.6695 7.73882C64.5786 7.73882 65.3712 7.93768 66.0473 8.33541C66.7291 8.72746 67.2576 9.2928 67.6326 10.0314C68.0132 10.7644 68.2007 11.6422 68.1951 12.665V21.0002H64.5644V13.3127C64.5701 12.5059 64.3655 11.878 63.9507 11.4292C63.5416 10.9803 62.9678 10.7559 62.2291 10.7559C61.7348 10.7559 61.2973 10.861 60.9166 11.0712C60.5416 11.2814 60.2462 11.5883 60.0303 11.9917C59.8201 12.3894 59.7121 12.8695 59.7064 13.432ZM72.8653 21.2473C72.03 21.2473 71.2857 21.1025 70.6323 20.8127C69.9789 20.5172 69.4618 20.0826 69.0812 19.5087C68.7062 18.9292 68.5187 18.2076 68.5187 17.3439C68.5187 16.6167 68.6522 16.0059 68.9192 15.5115C69.1863 15.0172 69.5499 14.6195 70.0101 14.3184C70.4704 14.0172 70.9931 13.79 71.5783 13.6365C72.1692 13.4831 72.7886 13.3752 73.4363 13.3127C74.1976 13.2331 74.8113 13.1593 75.2772 13.0911C75.7431 13.0172 76.0812 12.9093 76.2914 12.7672C76.5016 12.6252 76.6067 12.415 76.6067 12.1365V12.0854C76.6067 11.5456 76.4363 11.128 76.0954 10.8326C75.7601 10.5371 75.2829 10.3894 74.6636 10.3894C74.0101 10.3894 73.4903 10.5343 73.1039 10.824C72.7175 11.1081 72.4618 11.4661 72.3368 11.8979L68.9789 11.6252C69.1493 10.8297 69.4846 10.1422 69.9846 9.56268C70.4846 8.97746 71.1295 8.52859 71.9192 8.21609C72.7147 7.89791 73.6351 7.73882 74.6806 7.73882C75.4079 7.73882 76.1039 7.82405 76.7687 7.9945C77.4391 8.16496 78.0329 8.42916 78.5499 8.78711C79.0726 9.14507 79.4846 9.6053 79.7857 10.1678C80.0868 10.7246 80.2374 11.3922 80.2374 12.1706V21.0002H76.7942V19.1848H76.692C76.4817 19.5939 76.2005 19.9547 75.8482 20.2672C75.4959 20.574 75.0726 20.8155 74.5783 20.9917C74.084 21.1621 73.513 21.2473 72.8653 21.2473ZM73.905 18.7417C74.4391 18.7417 74.9107 18.6365 75.3198 18.4263C75.7289 18.2104 76.0499 17.9206 76.2829 17.557C76.5158 17.1934 76.6323 16.7814 76.6323 16.3212V14.932C76.5187 15.0059 76.3624 15.074 76.1636 15.1365C75.9704 15.1934 75.7516 15.2473 75.5073 15.2985C75.263 15.3439 75.0187 15.3865 74.7743 15.4263C74.53 15.4604 74.3084 15.4917 74.1096 15.5201C73.6834 15.5826 73.3113 15.682 72.9931 15.8184C72.6749 15.9547 72.4278 16.1394 72.2516 16.3723C72.0755 16.5996 71.9874 16.8837 71.9874 17.2246C71.9874 17.7189 72.1664 18.0968 72.5243 18.3581C72.888 18.6138 73.3482 18.7417 73.905 18.7417ZM84.7649 13.432V21.0002H81.1342V7.90927H84.5944V10.2189H84.7478C85.0376 9.45757 85.5234 8.8553 86.2052 8.41211C86.887 7.96325 87.7137 7.73882 88.6853 7.73882C89.5944 7.73882 90.387 7.93768 91.0632 8.33541C91.7393 8.73314 92.2649 9.30132 92.6399 10.04C93.0149 10.7729 93.2024 11.6479 93.2024 12.665V21.0002H89.5717V13.3127C89.5774 12.5115 89.3728 11.8865 88.958 11.4377C88.5433 10.9831 87.9722 10.7559 87.245 10.7559C86.7563 10.7559 86.3245 10.861 85.9495 11.0712C85.5802 11.2814 85.2904 11.5883 85.0802 11.9917C84.8757 12.3894 84.7705 12.8695 84.7649 13.432ZM113.247 9.65643H109.514C109.446 9.17348 109.307 8.7445 109.097 8.3695C108.887 7.98882 108.617 7.66496 108.287 7.39791C107.958 7.13086 107.577 6.92632 107.145 6.78427C106.719 6.64223 106.256 6.57121 105.756 6.57121C104.852 6.57121 104.065 6.79564 103.395 7.2445C102.725 7.68768 102.205 8.33541 101.835 9.18768C101.466 10.0343 101.281 11.0627 101.281 12.2729C101.281 13.5172 101.466 14.5627 101.835 15.4093C102.21 16.2559 102.733 16.8951 103.404 17.3269C104.074 17.7587 104.85 17.9746 105.73 17.9746C106.225 17.9746 106.682 17.9093 107.102 17.7786C107.529 17.6479 107.906 17.4576 108.236 17.2076C108.565 16.9519 108.838 16.6422 109.054 16.2786C109.276 15.915 109.429 15.5002 109.514 15.0343L113.247 15.0513C113.151 15.8525 112.909 16.6252 112.523 17.3695C112.142 18.1081 111.628 18.7701 110.98 19.3553C110.338 19.9348 109.571 20.3951 108.679 20.736C107.793 21.0712 106.79 21.2388 105.671 21.2388C104.114 21.2388 102.722 20.8865 101.494 20.182C100.273 19.4775 99.307 18.4576 98.5967 17.1223C97.8922 15.7871 97.5399 14.1706 97.5399 12.2729C97.5399 10.3695 97.8979 8.75018 98.6138 7.41496C99.3297 6.07973 100.301 5.06268 101.529 4.36382C102.756 3.65927 104.137 3.307 105.671 3.307C106.682 3.307 107.619 3.44905 108.483 3.73314C109.352 4.01723 110.122 4.432 110.793 4.97745C111.463 5.51723 112.009 6.17916 112.429 6.96325C112.855 7.74734 113.128 8.64507 113.247 9.65643ZM119.82 21.2559C118.496 21.2559 117.351 20.9746 116.386 20.4121C115.425 19.8439 114.684 19.0542 114.161 18.0428C113.638 17.0258 113.377 15.8468 113.377 14.5059C113.377 13.1536 113.638 11.9718 114.161 10.9604C114.684 9.94336 115.425 9.15359 116.386 8.59109C117.351 8.02291 118.496 7.73882 119.82 7.73882C121.144 7.73882 122.286 8.02291 123.246 8.59109C124.212 9.15359 124.957 9.94336 125.479 10.9604C126.002 11.9718 126.263 13.1536 126.263 14.5059C126.263 15.8468 126.002 17.0258 125.479 18.0428C124.957 19.0542 124.212 19.8439 123.246 20.4121C122.286 20.9746 121.144 21.2559 119.82 21.2559ZM119.837 18.4434C120.44 18.4434 120.942 18.2729 121.346 17.932C121.749 17.5854 122.053 17.1138 122.258 16.5172C122.468 15.9206 122.573 15.2417 122.573 14.4803C122.573 13.7189 122.468 13.04 122.258 12.4434C122.053 11.8468 121.749 11.3752 121.346 11.0286C120.942 10.682 120.44 10.5087 119.837 10.5087C119.229 10.5087 118.718 10.682 118.303 11.0286C117.894 11.3752 117.584 11.8468 117.374 12.4434C117.17 13.04 117.067 13.7189 117.067 14.4803C117.067 15.2417 117.17 15.9206 117.374 16.5172C117.584 17.1138 117.894 17.5854 118.303 17.932C118.718 18.2729 119.229 18.4434 119.837 18.4434ZM130.335 13.432V21.0002H126.704V7.90927H130.164V10.2189H130.318C130.608 9.45757 131.093 8.8553 131.775 8.41211C132.457 7.96325 133.284 7.73882 134.255 7.73882C135.164 7.73882 135.957 7.93768 136.633 8.33541C137.309 8.73314 137.835 9.30132 138.21 10.04C138.585 10.7729 138.772 11.6479 138.772 12.665V21.0002H135.142V13.3127C135.147 12.5115 134.943 11.8865 134.528 11.4377C134.113 10.9831 133.542 10.7559 132.815 10.7559C132.326 10.7559 131.895 10.861 131.52 11.0712C131.15 11.2814 130.86 11.5883 130.65 11.9917C130.446 12.3894 130.341 12.8695 130.335 13.432ZM150.606 11.6422L147.282 11.8468C147.225 11.5627 147.103 11.307 146.916 11.0797C146.728 10.8468 146.481 10.6621 146.174 10.5258C145.873 10.3837 145.512 10.3127 145.092 10.3127C144.529 10.3127 144.055 10.432 143.668 10.6706C143.282 10.9036 143.089 11.2161 143.089 11.6081C143.089 11.9206 143.214 12.1848 143.464 12.4008C143.714 12.6167 144.143 12.79 144.751 12.9206L147.12 13.3979C148.393 13.6593 149.342 14.0797 149.967 14.6593C150.592 15.2388 150.904 16.0002 150.904 16.9434C150.904 17.8013 150.651 18.5542 150.146 19.2019C149.646 19.8496 148.958 20.3553 148.083 20.7189C147.214 21.0769 146.211 21.2559 145.075 21.2559C143.342 21.2559 141.961 20.8951 140.933 20.1735C139.91 19.4462 139.31 18.4576 139.134 17.2076L142.705 17.0201C142.813 17.5485 143.075 17.9519 143.489 18.2303C143.904 18.503 144.435 18.6394 145.083 18.6394C145.72 18.6394 146.231 18.5172 146.617 18.2729C147.009 18.0229 147.208 17.7019 147.214 17.3098C147.208 16.9803 147.069 16.7104 146.796 16.5002C146.524 16.2843 146.103 16.1195 145.535 16.0059L143.268 15.5542C141.989 15.2985 141.038 14.8553 140.413 14.2246C139.793 13.5939 139.484 12.79 139.484 11.8127C139.484 10.9718 139.711 10.2473 140.166 9.63939C140.626 9.03143 141.271 8.56268 142.1 8.23314C142.935 7.90359 143.913 7.73882 145.032 7.73882C146.685 7.73882 147.987 8.08825 148.935 8.78711C149.89 9.48598 150.447 10.4377 150.606 11.6422ZM158.233 7.90927V10.6365H150.35V7.90927H158.233ZM152.14 4.77291H155.77V16.9775C155.77 17.3127 155.822 17.574 155.924 17.7615C156.026 17.9434 156.168 18.0712 156.35 18.1451C156.537 18.2189 156.753 18.2559 156.998 18.2559C157.168 18.2559 157.339 18.2417 157.509 18.2133C157.68 18.1792 157.81 18.1536 157.901 18.1365L158.472 20.8383C158.29 20.8951 158.035 20.9604 157.705 21.0343C157.376 21.1138 156.975 21.1621 156.503 21.1792C155.628 21.2133 154.861 21.0968 154.202 20.8297C153.549 20.5627 153.04 20.1479 152.677 19.5854C152.313 19.0229 152.134 18.3127 152.14 17.4547V4.77291ZM167.073 15.4263V7.90927H170.704V21.0002H167.218V18.6223H167.082C166.787 19.3894 166.295 20.0059 165.608 20.4718C164.926 20.9377 164.093 21.1706 163.11 21.1706C162.235 21.1706 161.465 20.9718 160.801 20.574C160.136 20.1763 159.616 19.611 159.241 18.878C158.872 18.1451 158.684 17.2672 158.679 16.2445V7.90927H162.309V15.5968C162.315 16.3695 162.522 16.9803 162.931 17.4292C163.34 17.878 163.889 18.1025 164.576 18.1025C165.014 18.1025 165.423 18.003 165.804 17.8042C166.184 17.5996 166.491 17.2985 166.724 16.9008C166.963 16.503 167.079 16.0115 167.073 15.4263ZM177.603 21.2559C176.262 21.2559 175.109 20.9718 174.143 20.4036C173.183 19.8297 172.444 19.0343 171.927 18.0172C171.416 17.0002 171.16 15.8297 171.16 14.5059C171.16 13.165 171.418 11.9888 171.935 10.9775C172.458 9.96041 173.2 9.1678 174.16 8.59961C175.12 8.02575 176.262 7.73882 177.586 7.73882C178.728 7.73882 179.728 7.94621 180.586 8.36098C181.444 8.77575 182.123 9.35814 182.623 10.1081C183.123 10.8581 183.398 11.7388 183.45 12.7502H180.023C179.927 12.0968 179.671 11.5712 179.256 11.1735C178.847 10.7701 178.31 10.5684 177.646 10.5684C177.083 10.5684 176.592 10.7218 176.171 11.0286C175.756 11.3297 175.433 11.7701 175.2 12.3496C174.967 12.9292 174.85 13.6309 174.85 14.4547C174.85 15.29 174.964 16.0002 175.191 16.5854C175.424 17.1706 175.751 17.6167 176.171 17.9235C176.592 18.2303 177.083 18.3837 177.646 18.3837C178.06 18.3837 178.433 18.2985 178.762 18.128C179.097 17.9576 179.373 17.7104 179.589 17.3865C179.81 17.057 179.955 16.6621 180.023 16.2019H183.45C183.393 17.2019 183.12 18.0826 182.631 18.8439C182.148 19.5996 181.481 20.1905 180.629 20.6167C179.776 21.0428 178.768 21.2559 177.603 21.2559ZM190.817 7.90927V10.6365H182.934V7.90927H190.817ZM184.724 4.77291H188.354V16.9775C188.354 17.3127 188.405 17.574 188.508 17.7615C188.61 17.9434 188.752 18.0712 188.934 18.1451C189.121 18.2189 189.337 18.2559 189.581 18.2559C189.752 18.2559 189.922 18.2417 190.093 18.2133C190.263 18.1792 190.394 18.1536 190.485 18.1365L191.056 20.8383C190.874 20.8951 190.618 20.9604 190.289 21.0343C189.959 21.1138 189.559 21.1621 189.087 21.1792C188.212 21.2133 187.445 21.0968 186.786 20.8297C186.133 20.5627 185.624 20.1479 185.26 19.5854C184.897 19.0229 184.718 18.3127 184.724 17.4547V4.77291ZM191.262 21.0002V7.90927H194.893V21.0002H191.262ZM193.086 6.22177C192.546 6.22177 192.083 6.0428 191.697 5.68484C191.316 5.32121 191.126 4.88655 191.126 4.38086C191.126 3.88086 191.316 3.45189 191.697 3.09393C192.083 2.7303 192.546 2.54848 193.086 2.54848C193.626 2.54848 194.086 2.7303 194.467 3.09393C194.853 3.45189 195.046 3.88086 195.046 4.38086C195.046 4.88655 194.853 5.32121 194.467 5.68484C194.086 6.0428 193.626 6.22177 193.086 6.22177ZM201.796 21.2559C200.472 21.2559 199.327 20.9746 198.361 20.4121C197.401 19.8439 196.66 19.0542 196.137 18.0428C195.614 17.0258 195.353 15.8468 195.353 14.5059C195.353 13.1536 195.614 11.9718 196.137 10.9604C196.66 9.94336 197.401 9.15359 198.361 8.59109C199.327 8.02291 200.472 7.73882 201.796 7.73882C203.12 7.73882 204.262 8.02291 205.222 8.59109C206.188 9.15359 206.932 9.94336 207.455 10.9604C207.978 11.9718 208.239 13.1536 208.239 14.5059C208.239 15.8468 207.978 17.0258 207.455 18.0428C206.932 19.0542 206.188 19.8439 205.222 20.4121C204.262 20.9746 203.12 21.2559 201.796 21.2559ZM201.813 18.4434C202.415 18.4434 202.918 18.2729 203.322 17.932C203.725 17.5854 204.029 17.1138 204.234 16.5172C204.444 15.9206 204.549 15.2417 204.549 14.4803C204.549 13.7189 204.444 13.04 204.234 12.4434C204.029 11.8468 203.725 11.3752 203.322 11.0286C202.918 10.682 202.415 10.5087 201.813 10.5087C201.205 10.5087 200.694 10.682 200.279 11.0286C199.87 11.3752 199.56 11.8468 199.35 12.4434C199.146 13.04 199.043 13.7189 199.043 14.4803C199.043 15.2417 199.146 15.9206 199.35 16.5172C199.56 17.1138 199.87 17.5854 200.279 17.932C200.694 18.2729 201.205 18.4434 201.813 18.4434ZM212.311 13.432V21.0002H208.68V7.90927H212.14V10.2189H212.294C212.584 9.45757 213.069 8.8553 213.751 8.41211C214.433 7.96325 215.26 7.73882 216.231 7.73882C217.14 7.73882 217.933 7.93768 218.609 8.33541C219.285 8.73314 219.811 9.30132 220.186 10.04C220.561 10.7729 220.748 11.6479 220.748 12.665V21.0002H217.118V13.3127C217.123 12.5115 216.919 11.8865 216.504 11.4377C216.089 10.9831 215.518 10.7559 214.791 10.7559C214.302 10.7559 213.87 10.861 213.495 11.0712C213.126 11.2814 212.836 11.5883 212.626 11.9917C212.422 12.3894 212.316 12.8695 212.311 13.432Z" fill="#084527"/>
</svg>
